<svg fill="none" viewBox="0 0 80 49"><g clip-path="url(#clip0_3802_10552)"><path fill="#00A39D" d="M13.656 42.307q1.588 0 2.584-.407 1.02-.407 1.589-1.055t.782-1.462a6.5 6.5 0 0 0 .213-1.654 5.3 5.3 0 0 0-.26-1.725 2.73 2.73 0 0 0-.854-1.295q-.593-.527-1.588-.815t-2.514-.287H8.014v8.7zM8.013 19.561v8.63h4.173q1.327 0 2.395-.193 1.066-.192 1.801-.67a2.97 2.97 0 0 0 1.138-1.319q.404-.839.403-2.11 0-1.245-.308-2.06-.307-.84-.948-1.343-.64-.503-1.636-.719-.973-.215-2.323-.216zm4.695-6.063q3.579 0 6.093.67 2.512.672 4.101 1.894 1.59 1.223 2.3 2.972.735 1.75.735 3.907 0 1.175-.332 2.277a6.7 6.7 0 0 1-1.043 2.037q-.712.936-1.826 1.726-1.114.791-2.679 1.366 3.414.84 5.05 2.709t1.636 4.841q0 2.229-.854 4.147-.853 1.918-2.513 3.355-1.636 1.414-4.054 2.23-2.418.79-5.524.79H0V13.498zm38.651 7.122q-.355.574-.759.862-.38.287-.995.287-.546 0-1.186-.335-.616-.36-1.422-.79a10.6 10.6 0 0 0-1.802-.766q-1.02-.36-2.324-.36-2.251 0-3.366.982-1.09.959-1.09 2.61 0 1.053.663 1.748.665.693 1.73 1.197 1.092.503 2.466.933 1.4.408 2.845.934 1.447.502 2.822 1.197a9.2 9.2 0 0 1 2.465 1.772q1.09 1.077 1.755 2.633.663 1.533.663 3.711 0 2.418-.83 4.525a10.6 10.6 0 0 1-2.417 3.687q-1.566 1.556-3.889 2.466-2.3.886-5.24.886-1.61 0-3.295-.336a20 20 0 0 1-3.224-.933 19.5 19.5 0 0 1-2.94-1.46 12.5 12.5 0 0 1-2.394-1.868l2.37-3.783q.285-.407.735-.67a1.93 1.93 0 0 1 1.02-.288q.711 0 1.422.455.736.456 1.636 1.006.925.55 2.11 1.005 1.185.456 2.798.455 2.181 0 3.39-.957 1.21-.982 1.21-3.089 0-1.22-.665-1.987-.663-.765-1.754-1.269a15.5 15.5 0 0 0-2.442-.885 89 89 0 0 1-2.821-.838 23 23 0 0 1-2.821-1.15 9.4 9.4 0 0 1-2.466-1.795q-1.067-1.125-1.73-2.777-.665-1.677-.665-4.118 0-1.964.783-3.83a9.9 9.9 0 0 1 2.3-3.328q1.517-1.46 3.722-2.323 2.205-.885 5.05-.885 1.588 0 3.082.263 1.517.24 2.868.742 1.352.48 2.513 1.173 1.185.67 2.11 1.532z"/><path fill="#F8AD3C" fill-rule="evenodd" d="M80 12.053c-6.153-.6-8.316 2.789-9.523 4.464-1.54-6.699-4.143-6.17-6.928-7.858C67.575 6.322 68.7 2.69 68.59 0c3.943 2.89 6.692 2.58 10.097 1.643C76.992 6.7 78.06 8.125 80 12.053" clip-rule="evenodd"/><path fill="#00A39D" d="M67.132 48.434h-8.333V12.722c5.214.706 8.34 5.02 8.333 9.584z"/></g><defs><clipPath id="clip0_3802_10552"><path fill="#fff" d="M0 0h80v48.798H0z"/></clipPath></defs></svg>